<svg width="20" height="20" viewBox="0 0 20 20" fill="none" xmlns="http://www.w3.org/2000/svg">
<g clip-path="url(#clip0_7378_18032)">
<path d="M6.96721 0.658267C4.9689 1.3515 3.24556 2.66728 2.05032 4.41233C0.855082 6.15739 0.250946 8.23974 0.326651 10.3535C0.402355 12.4673 1.15391 14.5011 2.47092 16.1562C3.78794 17.8113 5.60099 19.0004 7.64377 19.5489C9.2999 19.9762 11.035 19.995 12.7 19.6036C14.2083 19.2648 15.6028 18.5401 16.7469 17.5005C17.9376 16.3854 18.802 14.9668 19.2469 13.3973C19.7304 11.6905 19.8164 9.89567 19.4985 8.15045H10.1985V12.0083H15.5844C15.4768 12.6236 15.2461 13.2108 14.9062 13.7349C14.5663 14.2589 14.1242 14.7091 13.6063 15.0583C12.9487 15.4935 12.2073 15.7862 11.4297 15.9176C10.6499 16.0627 9.85011 16.0627 9.07033 15.9176C8.27995 15.7544 7.53227 15.4282 6.87502 14.9598C5.819 14.2123 5.02608 13.1503 4.6094 11.9255C4.18579 10.6776 4.18579 9.32486 4.6094 8.07702C4.906 7.20235 5.39632 6.40598 6.04377 5.74733C6.7847 4.97975 7.72273 4.43108 8.75495 4.16151C9.78718 3.89195 10.8737 3.91191 11.8953 4.2192C12.6935 4.46409 13.4233 4.89214 14.0266 5.4692C14.6339 4.86504 15.2401 4.25931 15.8453 3.65202C16.1578 3.32545 16.4985 3.01452 16.8063 2.68014C15.8852 1.82314 14.8042 1.15624 13.625 0.717642C11.4777 -0.0620611 9.12811 -0.0830148 6.96721 0.658267Z" fill="white"/>
<path d="M6.96563 0.657073C9.12635 -0.0847125 11.4759 -0.0643102 13.6234 0.714886C14.8028 1.15647 15.8834 1.82657 16.8031 2.68676C16.4906 3.02114 16.1609 3.33364 15.8422 3.65864C15.2359 4.26384 14.6302 4.86697 14.025 5.46801C13.4217 4.89095 12.6919 4.46289 11.8937 4.21801C10.8725 3.90964 9.78597 3.88852 8.75347 4.15698C7.72097 4.42544 6.78236 4.97311 6.04062 5.73989C5.39318 6.39854 4.90285 7.19491 4.60625 8.06957L1.36719 5.56176C2.52658 3.26264 4.53398 1.50399 6.96563 0.657073Z" fill="#E33629"/>
<path d="M0.510152 8.04688C0.68412 7.18402 0.973161 6.34843 1.36953 5.5625L4.60859 8.07656C4.18498 9.3244 4.18498 10.6772 4.60859 11.925C3.52942 12.7583 2.44974 13.5958 1.36953 14.4375C0.377575 12.463 0.0750466 10.2133 0.510152 8.04688Z" fill="#F8BD00"/>
<path d="M10.196 8.14844H19.496C19.814 9.89366 19.7279 11.6885 19.2444 13.3953C18.7995 14.9648 17.9352 16.3834 16.7444 17.4984C15.6991 16.6828 14.6491 15.8734 13.6038 15.0578C14.1221 14.7082 14.5644 14.2576 14.9043 13.733C15.2442 13.2084 15.4747 12.6205 15.5819 12.0047H10.196C10.1944 10.7203 10.196 9.43437 10.196 8.14844Z" fill="#587DBD"/>
<path d="M1.36719 14.4383C2.4474 13.6049 3.52708 12.7674 4.60625 11.9258C5.02376 13.1511 5.81782 14.2131 6.875 14.9602C7.5343 15.4264 8.28359 15.7499 9.075 15.9102C9.85477 16.0552 10.6546 16.0552 11.4344 15.9102C12.2119 15.7787 12.9533 15.486 13.6109 15.0508C14.6562 15.8664 15.7063 16.6758 16.7516 17.4914C15.6076 18.5316 14.2132 19.2568 12.7047 19.5961C11.0397 19.9875 9.30457 19.9687 7.64844 19.5414C6.3386 19.1917 5.11512 18.5751 4.05469 17.7305C2.93239 16.8393 2.01568 15.7163 1.36719 14.4383Z" fill="#319F43"/>
</g>
<defs>
<clipPath id="clip0_7378_18032">
<rect width="20" height="20" fill="white"/>
</clipPath>
</defs>
</svg>
