<svg width="56" height="56" viewBox="0 0 56 56" fill="none" xmlns="http://www.w3.org/2000/svg">
<rect width="56" height="56" rx="8" fill="#ECF6FF"/>
<path d="M44.1831 22.5174C46.2665 20.4341 45.3165 18.0008 44.1831 16.8174L39.1831 11.8174C37.0831 9.73411 34.6665 10.6841 33.4831 11.8174L30.6498 14.6674H26.3331C23.1665 14.6674 21.3331 16.3341 20.3998 18.2508L12.9998 25.6508V32.3174L11.8165 33.4841C9.73313 35.5841 10.6831 38.0008 11.8165 39.1841L16.8165 44.1841C17.7165 45.0841 18.6831 45.4174 19.5998 45.4174C20.7831 45.4174 21.8665 44.8341 22.5165 44.1841L27.0165 39.6674H32.9998C35.8331 39.6674 37.2665 37.9008 37.7831 36.1674C39.6665 35.6674 40.6998 34.2341 41.1165 32.8341C43.6998 32.1674 44.6665 29.7174 44.6665 28.0008V23.0008H43.6831L44.1831 22.5174ZM41.3331 28.0008C41.3331 28.7508 41.0165 29.6674 39.6665 29.6674H37.9998V31.3341C37.9998 32.0841 37.6831 33.0008 36.3331 33.0008H34.6665V34.6674C34.6665 35.4174 34.3498 36.3341 32.9998 36.3341H25.6498L20.1831 41.8008C19.6665 42.2841 19.3665 42.0008 19.1831 41.8174L14.1998 36.8508C13.7165 36.3341 13.9998 36.0341 14.1831 35.8508L16.3331 33.6841V27.0174L19.6665 23.6841V26.3341C19.6665 28.3508 20.9998 31.3341 24.6665 31.3341C28.3331 31.3341 29.6665 28.3508 29.6665 26.3341H41.3331V28.0008ZM41.8165 20.1508L38.9831 23.0008H26.3331V26.3341C26.3331 27.0841 26.0165 28.0008 24.6665 28.0008C23.3165 28.0008 22.9998 27.0841 22.9998 26.3341V21.3341C22.9998 20.5674 23.2831 18.0008 26.3331 18.0008H32.0165L35.8165 14.2008C36.3331 13.7174 36.6331 14.0008 36.8165 14.1841L41.7998 19.1508C42.2831 19.6674 41.9998 19.9674 41.8165 20.1508Z" fill="#262626"/>
</svg>
