<svg width="43" height="24" viewBox="0 0 43 24" fill="none" xmlns="http://www.w3.org/2000/svg">
<rect width="43" height="24" rx="12" fill="#1E1E1E"/>
<path d="M14.6016 12.7578H11.6406V11.2031H14.6016C15.1172 11.2031 15.5339 11.1198 15.8516 10.9531C16.1693 10.7865 16.401 10.5573 16.5469 10.2656C16.6979 9.96875 16.7734 9.63021 16.7734 9.25C16.7734 8.89062 16.6979 8.55469 16.5469 8.24219C16.401 7.92448 16.1693 7.66927 15.8516 7.47656C15.5339 7.28385 15.1172 7.1875 14.6016 7.1875H12.2422V17H10.2812V5.625H14.6016C15.4818 5.625 16.2292 5.78125 16.8438 6.09375C17.4635 6.40104 17.9349 6.82812 18.2578 7.375C18.5807 7.91667 18.7422 8.53646 18.7422 9.23438C18.7422 9.96875 18.5807 10.599 18.2578 11.125C17.9349 11.651 17.4635 12.0547 16.8438 12.3359C16.2292 12.6172 15.4818 12.7578 14.6016 12.7578ZM22.2031 10.1562V17H20.3203V8.54688H22.1172L22.2031 10.1562ZM24.7891 8.49219L24.7734 10.2422C24.6589 10.2214 24.5339 10.2057 24.3984 10.1953C24.2682 10.1849 24.138 10.1797 24.0078 10.1797C23.6849 10.1797 23.401 10.2266 23.1562 10.3203C22.9115 10.4089 22.7057 10.5391 22.5391 10.7109C22.3776 10.8776 22.2526 11.0807 22.1641 11.3203C22.0755 11.5599 22.0234 11.8281 22.0078 12.125L21.5781 12.1562C21.5781 11.625 21.6302 11.1328 21.7344 10.6797C21.8385 10.2266 21.9948 9.82812 22.2031 9.48438C22.4167 9.14062 22.6823 8.8724 23 8.67969C23.3229 8.48698 23.6953 8.39062 24.1172 8.39062C24.2318 8.39062 24.3542 8.40104 24.4844 8.42188C24.6198 8.44271 24.7214 8.46615 24.7891 8.49219ZM25.4062 12.8672V12.6875C25.4062 12.0781 25.4948 11.513 25.6719 10.9922C25.849 10.4661 26.1042 10.0104 26.4375 9.625C26.776 9.23438 27.1875 8.93229 27.6719 8.71875C28.1615 8.5 28.7135 8.39062 29.3281 8.39062C29.9479 8.39062 30.5 8.5 30.9844 8.71875C31.474 8.93229 31.888 9.23438 32.2266 9.625C32.5651 10.0104 32.8229 10.4661 33 10.9922C33.1771 11.513 33.2656 12.0781 33.2656 12.6875V12.8672C33.2656 13.4766 33.1771 14.0417 33 14.5625C32.8229 15.0833 32.5651 15.5391 32.2266 15.9297C31.888 16.3151 31.4766 16.6172 30.9922 16.8359C30.5078 17.0495 29.9583 17.1562 29.3438 17.1562C28.724 17.1562 28.1693 17.0495 27.6797 16.8359C27.1953 16.6172 26.7839 16.3151 26.4453 15.9297C26.1068 15.5391 25.849 15.0833 25.6719 14.5625C25.4948 14.0417 25.4062 13.4766 25.4062 12.8672ZM27.2891 12.6875V12.8672C27.2891 13.2474 27.3281 13.6068 27.4062 13.9453C27.4844 14.2839 27.6068 14.5807 27.7734 14.8359C27.9401 15.0911 28.1536 15.2917 28.4141 15.4375C28.6745 15.5833 28.9844 15.6562 29.3438 15.6562C29.6927 15.6562 29.9948 15.5833 30.25 15.4375C30.5104 15.2917 30.724 15.0911 30.8906 14.8359C31.0573 14.5807 31.1797 14.2839 31.2578 13.9453C31.3411 13.6068 31.3828 13.2474 31.3828 12.8672V12.6875C31.3828 12.3125 31.3411 11.9583 31.2578 11.625C31.1797 11.2865 31.0547 10.987 30.8828 10.7266C30.7161 10.4661 30.5026 10.263 30.2422 10.1172C29.987 9.96615 29.6823 9.89062 29.3281 9.89062C28.974 9.89062 28.6667 9.96615 28.4062 10.1172C28.151 10.263 27.9401 10.4661 27.7734 10.7266C27.6068 10.987 27.4844 11.2865 27.4062 11.625C27.3281 11.9583 27.2891 12.3125 27.2891 12.6875Z" fill="url(#paint0_linear_8310_8459)"/>
<defs>
<linearGradient id="paint0_linear_8310_8459" x1="9.5" y1="11.5996" x2="34.5" y2="11.5996" gradientUnits="userSpaceOnUse">
<stop stop-color="#5AB0FF"/>
<stop offset="1" stop-color="#AFD9FF"/>
</linearGradient>
</defs>
</svg>
