<svg width="56" height="56" viewBox="0 0 56 56" fill="none" xmlns="http://www.w3.org/2000/svg">
<rect width="56" height="56" rx="8" fill="#ECF6FF"/>
<path d="M19.667 33H23.0003C23.0003 34.8 25.2837 36.3333 28.0003 36.3333C30.717 36.3333 33.0003 34.8 33.0003 33C33.0003 31.1667 31.267 30.5 27.6003 29.6167C24.067 28.7333 19.667 27.6333 19.667 23C19.667 20.0167 22.117 17.4833 25.5003 16.6333V13H30.5003V16.6333C33.8837 17.4833 36.3337 20.0167 36.3337 23H33.0003C33.0003 21.2 30.717 19.6667 28.0003 19.6667C25.2837 19.6667 23.0003 21.2 23.0003 23C23.0003 24.8333 24.7337 25.5 28.4003 26.3833C31.9337 27.2667 36.3337 28.3667 36.3337 33C36.3337 35.9833 33.8837 38.5167 30.5003 39.3667V43H25.5003V39.3667C22.117 38.5167 19.667 35.9833 19.667 33Z" fill="#262626"/>
</svg>
