<svg width="56" height="56" viewBox="0 0 56 56" fill="none" xmlns="http://www.w3.org/2000/svg">
<rect width="56" height="56" rx="8" fill="#ECF6FF"/>
<path d="M43 43L33 33M13 24.6667C13 26.1988 13.3018 27.7158 13.8881 29.1313C14.4744 30.5468 15.3337 31.8329 16.4171 32.9162C17.5004 33.9996 18.7866 34.859 20.202 35.4453C21.6175 36.0316 23.1346 36.3333 24.6667 36.3333C26.1988 36.3333 27.7158 36.0316 29.1313 35.4453C30.5468 34.859 31.8329 33.9996 32.9162 32.9162C33.9996 31.8329 34.859 30.5468 35.4453 29.1313C36.0316 27.7158 36.3333 26.1988 36.3333 24.6667C36.3333 23.1346 36.0316 21.6175 35.4453 20.202C34.859 18.7866 33.9996 17.5004 32.9162 16.4171C31.8329 15.3337 30.5468 14.4744 29.1313 13.8881C27.7158 13.3018 26.1988 13 24.6667 13C23.1346 13 21.6175 13.3018 20.202 13.8881C18.7866 14.4744 17.5004 15.3337 16.4171 16.4171C15.3337 17.5004 14.4744 18.7866 13.8881 20.202C13.3018 21.6175 13 23.1346 13 24.6667Z" stroke="#262626" stroke-width="3.5" stroke-linecap="round" stroke-linejoin="round"/>
</svg>
