<svg width="53" height="16" viewBox="0 0 53 16" fill="none" xmlns="http://www.w3.org/2000/svg">
<path d="M1.04688 7.21875C1.04688 6.73438 1.14844 6.30729 1.35156 5.9375C1.55469 5.56771 1.83333 5.27604 2.1875 5.0625C2.54167 4.84375 2.9375 4.68229 3.375 4.57812C3.81771 4.46875 4.29948 4.41406 4.82031 4.41406C5.51823 4.41406 6.1276 4.50521 6.64844 4.6875C7.17448 4.86979 7.59635 5.16406 7.91406 5.57031C8.23177 5.97135 8.39062 6.46615 8.39062 7.05469H5.67188C5.63542 6.85677 5.54427 6.69271 5.39844 6.5625C5.2526 6.43229 5.04948 6.36719 4.78906 6.36719C4.53906 6.36719 4.34896 6.42448 4.21875 6.53906C4.08854 6.64844 4.02344 6.78125 4.02344 6.9375C4.02344 7.06771 4.06771 7.17969 4.15625 7.27344C4.25 7.36198 4.39062 7.4349 4.57812 7.49219C4.77083 7.54948 4.94531 7.59375 5.10156 7.625C5.25781 7.65625 5.47396 7.69271 5.75 7.73438C6.02604 7.77083 6.22396 7.79948 6.34375 7.82031C7.125 7.96094 7.71354 8.22396 8.10938 8.60938C8.50521 8.98958 8.70312 9.52604 8.70312 10.2188C8.70312 11.1354 8.36198 11.8568 7.67969 12.3828C6.9974 12.9036 6.01562 13.1641 4.73438 13.1641C3.46875 13.1641 2.50521 12.9141 1.84375 12.4141C1.18229 11.9141 0.851562 11.2708 0.851562 10.4844H3.91406C3.92969 10.6927 4.02344 10.8646 4.19531 11C4.3724 11.1302 4.59635 11.1953 4.86719 11.1953C5.11198 11.1953 5.30469 11.1406 5.44531 11.0312C5.58594 10.9219 5.65625 10.7891 5.65625 10.6328C5.65625 10.5182 5.61719 10.4219 5.53906 10.3438C5.46615 10.2604 5.34896 10.1953 5.1875 10.1484C5.03125 10.0964 4.88021 10.0547 4.73438 10.0234C4.59375 9.99219 4.40365 9.95833 4.16406 9.92188C3.92448 9.88021 3.73958 9.84635 3.60938 9.82031C1.90104 9.46615 1.04688 8.59896 1.04688 7.21875ZM13.7266 13.1641C13.1016 13.1641 12.5312 13.0807 12.0156 12.9141C11.5052 12.7474 11.0573 12.5 10.6719 12.1719C10.2917 11.8385 9.9974 11.4062 9.78906 10.875C9.58073 10.3385 9.47656 9.72396 9.47656 9.03125V8.51562C9.47656 7.82812 9.58594 7.21875 9.80469 6.6875C10.0286 6.15104 10.3307 5.72135 10.7109 5.39844C11.0964 5.07031 11.5339 4.82552 12.0234 4.66406C12.513 4.4974 13.0417 4.41406 13.6094 4.41406C14.8385 4.41406 15.8255 4.78125 16.5703 5.51562C17.3203 6.24479 17.6953 7.24479 17.6953 8.51562V9.39844H12.5469V9.75781C12.5469 10.1224 12.6615 10.4062 12.8906 10.6094C13.125 10.8125 13.3984 10.9141 13.7109 10.9141C14.0339 10.9141 14.3047 10.8385 14.5234 10.6875C14.7422 10.5365 14.8542 10.3333 14.8594 10.0781H17.6719C17.6667 10.349 17.6198 10.6224 17.5312 10.8984C17.4427 11.1693 17.2969 11.4427 17.0938 11.7188C16.8906 11.9948 16.6406 12.2396 16.3438 12.4531C16.0521 12.6615 15.6797 12.8333 15.2266 12.9688C14.7734 13.099 14.2734 13.1641 13.7266 13.1641ZM12.5469 7.75781H14.6875C14.6875 7.40365 14.5911 7.11979 14.3984 6.90625C14.2109 6.6875 13.9583 6.57812 13.6406 6.57812C13.3177 6.57812 13.0547 6.6875 12.8516 6.90625C12.6484 7.125 12.5469 7.40885 12.5469 7.75781ZM19.7031 4.57812V2.71094H22.7422V4.57812H24.3203V6.92188H22.7422V9.875C22.7422 10.4323 23.0755 10.7109 23.7422 10.7109C24.0234 10.7109 24.2161 10.7057 24.3203 10.6953V12.9219C23.9401 12.974 23.4948 13 22.9844 13C21.8229 13 20.9688 12.8177 20.4219 12.4531C19.8802 12.0885 19.6094 11.4635 19.6094 10.5781V6.92188H18.3281V4.57812H19.7031ZM31.3281 13.0703C30.75 13.0703 30.2552 12.9427 29.8438 12.6875C29.4375 12.4323 29.151 12.0859 28.9844 11.6484H28.8281V15.7969H25.6484V4.57812H28.8281V5.91406H28.9844C29.151 5.47656 29.4375 5.13281 29.8438 4.88281C30.25 4.63281 30.7448 4.50781 31.3281 4.50781C32.2656 4.50781 32.9974 4.84635 33.5234 5.52344C34.0547 6.19531 34.3203 7.17708 34.3203 8.46875V9.09375C34.3203 10.3854 34.0547 11.3724 33.5234 12.0547C32.9974 12.7318 32.2656 13.0703 31.3281 13.0703ZM29.9297 10.6953C30.2682 10.6953 30.5365 10.5547 30.7344 10.2734C30.9323 9.98698 31.0312 9.57031 31.0312 9.02344V8.5625C31.0312 8.01562 30.9323 7.60156 30.7344 7.32031C30.5365 7.03906 30.2682 6.89844 29.9297 6.89844C29.6016 6.89844 29.3359 7.03906 29.1328 7.32031C28.9297 7.60156 28.8281 8.01562 28.8281 8.5625V9.02344C28.8281 9.57031 28.9297 9.98698 29.1328 10.2734C29.3359 10.5547 29.6016 10.6953 29.9297 10.6953ZM35.5781 13V4.57812H38.7422V13H35.5781ZM35.5312 2.40625C35.5312 1.97396 35.6875 1.6276 36 1.36719C36.3125 1.10677 36.7005 0.976562 37.1641 0.976562C37.6224 0.976562 38.0078 1.10677 38.3203 1.36719C38.6328 1.6276 38.7891 1.97396 38.7891 2.40625C38.7891 2.84375 38.6328 3.19271 38.3203 3.45312C38.0078 3.71354 37.6224 3.84375 37.1641 3.84375C36.7005 3.84375 36.3125 3.71354 36 3.45312C35.6875 3.19271 35.5312 2.84375 35.5312 2.40625ZM40.3984 13V1.77344H43.5703V13H40.3984ZM49.0391 13.1641C48.4141 13.1641 47.8438 13.0807 47.3281 12.9141C46.8177 12.7474 46.3698 12.5 45.9844 12.1719C45.6042 11.8385 45.3099 11.4062 45.1016 10.875C44.8932 10.3385 44.7891 9.72396 44.7891 9.03125V8.51562C44.7891 7.82812 44.8984 7.21875 45.1172 6.6875C45.3411 6.15104 45.6432 5.72135 46.0234 5.39844C46.4089 5.07031 46.8464 4.82552 47.3359 4.66406C47.8255 4.4974 48.3542 4.41406 48.9219 4.41406C50.151 4.41406 51.138 4.78125 51.8828 5.51562C52.6328 6.24479 53.0078 7.24479 53.0078 8.51562V9.39844H47.8594V9.75781C47.8594 10.1224 47.974 10.4062 48.2031 10.6094C48.4375 10.8125 48.7109 10.9141 49.0234 10.9141C49.3464 10.9141 49.6172 10.8385 49.8359 10.6875C50.0547 10.5365 50.1667 10.3333 50.1719 10.0781H52.9844C52.9792 10.349 52.9323 10.6224 52.8438 10.8984C52.7552 11.1693 52.6094 11.4427 52.4062 11.7188C52.2031 11.9948 51.9531 12.2396 51.6562 12.4531C51.3646 12.6615 50.9922 12.8333 50.5391 12.9688C50.0859 13.099 49.5859 13.1641 49.0391 13.1641ZM47.8594 7.75781H50C50 7.40365 49.9036 7.11979 49.7109 6.90625C49.5234 6.6875 49.2708 6.57812 48.9531 6.57812C48.6302 6.57812 48.3672 6.6875 48.1641 6.90625C47.9609 7.125 47.8594 7.40885 47.8594 7.75781Z" fill="#262626"/>
</svg>
