<svg width="53" height="16" viewBox="0 0 53 16" fill="none" xmlns="http://www.w3.org/2000/svg">
<path d="M0.546875 7.21875C0.546875 6.73438 0.648438 6.30729 0.851562 5.9375C1.05469 5.56771 1.33333 5.27604 1.6875 5.0625C2.04167 4.84375 2.4375 4.68229 2.875 4.57812C3.31771 4.46875 3.79948 4.41406 4.32031 4.41406C5.01823 4.41406 5.6276 4.50521 6.14844 4.6875C6.67448 4.86979 7.09635 5.16406 7.41406 5.57031C7.73177 5.97135 7.89062 6.46615 7.89062 7.05469H5.17188C5.13542 6.85677 5.04427 6.69271 4.89844 6.5625C4.7526 6.43229 4.54948 6.36719 4.28906 6.36719C4.03906 6.36719 3.84896 6.42448 3.71875 6.53906C3.58854 6.64844 3.52344 6.78125 3.52344 6.9375C3.52344 7.06771 3.56771 7.17969 3.65625 7.27344C3.75 7.36198 3.89062 7.4349 4.07812 7.49219C4.27083 7.54948 4.44531 7.59375 4.60156 7.625C4.75781 7.65625 4.97396 7.69271 5.25 7.73438C5.52604 7.77083 5.72396 7.79948 5.84375 7.82031C6.625 7.96094 7.21354 8.22396 7.60938 8.60938C8.00521 8.98958 8.20312 9.52604 8.20312 10.2188C8.20312 11.1354 7.86198 11.8568 7.17969 12.3828C6.4974 12.9036 5.51562 13.1641 4.23438 13.1641C2.96875 13.1641 2.00521 12.9141 1.34375 12.4141C0.682292 11.9141 0.351562 11.2708 0.351562 10.4844H3.41406C3.42969 10.6927 3.52344 10.8646 3.69531 11C3.8724 11.1302 4.09635 11.1953 4.36719 11.1953C4.61198 11.1953 4.80469 11.1406 4.94531 11.0312C5.08594 10.9219 5.15625 10.7891 5.15625 10.6328C5.15625 10.5182 5.11719 10.4219 5.03906 10.3438C4.96615 10.2604 4.84896 10.1953 4.6875 10.1484C4.53125 10.0964 4.38021 10.0547 4.23438 10.0234C4.09375 9.99219 3.90365 9.95833 3.66406 9.92188C3.42448 9.88021 3.23958 9.84635 3.10938 9.82031C1.40104 9.46615 0.546875 8.59896 0.546875 7.21875ZM13.2266 13.1641C12.6016 13.1641 12.0312 13.0807 11.5156 12.9141C11.0052 12.7474 10.5573 12.5 10.1719 12.1719C9.79167 11.8385 9.4974 11.4062 9.28906 10.875C9.08073 10.3385 8.97656 9.72396 8.97656 9.03125V8.51562C8.97656 7.82812 9.08594 7.21875 9.30469 6.6875C9.52865 6.15104 9.83073 5.72135 10.2109 5.39844C10.5964 5.07031 11.0339 4.82552 11.5234 4.66406C12.013 4.4974 12.5417 4.41406 13.1094 4.41406C14.3385 4.41406 15.3255 4.78125 16.0703 5.51562C16.8203 6.24479 17.1953 7.24479 17.1953 8.51562V9.39844H12.0469V9.75781C12.0469 10.1224 12.1615 10.4062 12.3906 10.6094C12.625 10.8125 12.8984 10.9141 13.2109 10.9141C13.5339 10.9141 13.8047 10.8385 14.0234 10.6875C14.2422 10.5365 14.3542 10.3333 14.3594 10.0781H17.1719C17.1667 10.349 17.1198 10.6224 17.0312 10.8984C16.9427 11.1693 16.7969 11.4427 16.5938 11.7188C16.3906 11.9948 16.1406 12.2396 15.8438 12.4531C15.5521 12.6615 15.1797 12.8333 14.7266 12.9688C14.2734 13.099 13.7734 13.1641 13.2266 13.1641ZM12.0469 7.75781H14.1875C14.1875 7.40365 14.0911 7.11979 13.8984 6.90625C13.7109 6.6875 13.4583 6.57812 13.1406 6.57812C12.8177 6.57812 12.5547 6.6875 12.3516 6.90625C12.1484 7.125 12.0469 7.40885 12.0469 7.75781ZM19.2031 4.57812V2.71094H22.2422V4.57812H23.8203V6.92188H22.2422V9.875C22.2422 10.4323 22.5755 10.7109 23.2422 10.7109C23.5234 10.7109 23.7161 10.7057 23.8203 10.6953V12.9219C23.4401 12.974 22.9948 13 22.4844 13C21.3229 13 20.4688 12.8177 19.9219 12.4531C19.3802 12.0885 19.1094 11.4635 19.1094 10.5781V6.92188H17.8281V4.57812H19.2031ZM30.8281 13.0703C30.25 13.0703 29.7552 12.9427 29.3438 12.6875C28.9375 12.4323 28.651 12.0859 28.4844 11.6484H28.3281V15.7969H25.1484V4.57812H28.3281V5.91406H28.4844C28.651 5.47656 28.9375 5.13281 29.3438 4.88281C29.75 4.63281 30.2448 4.50781 30.8281 4.50781C31.7656 4.50781 32.4974 4.84635 33.0234 5.52344C33.5547 6.19531 33.8203 7.17708 33.8203 8.46875V9.09375C33.8203 10.3854 33.5547 11.3724 33.0234 12.0547C32.4974 12.7318 31.7656 13.0703 30.8281 13.0703ZM29.4297 10.6953C29.7682 10.6953 30.0365 10.5547 30.2344 10.2734C30.4323 9.98698 30.5312 9.57031 30.5312 9.02344V8.5625C30.5312 8.01562 30.4323 7.60156 30.2344 7.32031C30.0365 7.03906 29.7682 6.89844 29.4297 6.89844C29.1016 6.89844 28.8359 7.03906 28.6328 7.32031C28.4297 7.60156 28.3281 8.01562 28.3281 8.5625V9.02344C28.3281 9.57031 28.4297 9.98698 28.6328 10.2734C28.8359 10.5547 29.1016 10.6953 29.4297 10.6953ZM35.0781 13V4.57812H38.2422V13H35.0781ZM35.0312 2.40625C35.0312 1.97396 35.1875 1.6276 35.5 1.36719C35.8125 1.10677 36.2005 0.976562 36.6641 0.976562C37.1224 0.976562 37.5078 1.10677 37.8203 1.36719C38.1328 1.6276 38.2891 1.97396 38.2891 2.40625C38.2891 2.84375 38.1328 3.19271 37.8203 3.45312C37.5078 3.71354 37.1224 3.84375 36.6641 3.84375C36.2005 3.84375 35.8125 3.71354 35.5 3.45312C35.1875 3.19271 35.0312 2.84375 35.0312 2.40625ZM39.8984 13V1.77344H43.0703V13H39.8984ZM48.5391 13.1641C47.9141 13.1641 47.3438 13.0807 46.8281 12.9141C46.3177 12.7474 45.8698 12.5 45.4844 12.1719C45.1042 11.8385 44.8099 11.4062 44.6016 10.875C44.3932 10.3385 44.2891 9.72396 44.2891 9.03125V8.51562C44.2891 7.82812 44.3984 7.21875 44.6172 6.6875C44.8411 6.15104 45.1432 5.72135 45.5234 5.39844C45.9089 5.07031 46.3464 4.82552 46.8359 4.66406C47.3255 4.4974 47.8542 4.41406 48.4219 4.41406C49.651 4.41406 50.638 4.78125 51.3828 5.51562C52.1328 6.24479 52.5078 7.24479 52.5078 8.51562V9.39844H47.3594V9.75781C47.3594 10.1224 47.474 10.4062 47.7031 10.6094C47.9375 10.8125 48.2109 10.9141 48.5234 10.9141C48.8464 10.9141 49.1172 10.8385 49.3359 10.6875C49.5547 10.5365 49.6667 10.3333 49.6719 10.0781H52.4844C52.4792 10.349 52.4323 10.6224 52.3438 10.8984C52.2552 11.1693 52.1094 11.4427 51.9062 11.7188C51.7031 11.9948 51.4531 12.2396 51.1562 12.4531C50.8646 12.6615 50.4922 12.8333 50.0391 12.9688C49.5859 13.099 49.0859 13.1641 48.5391 13.1641ZM47.3594 7.75781H49.5C49.5 7.40365 49.4036 7.11979 49.2109 6.90625C49.0234 6.6875 48.7708 6.57812 48.4531 6.57812C48.1302 6.57812 47.8672 6.6875 47.6641 6.90625C47.4609 7.125 47.3594 7.40885 47.3594 7.75781Z" fill="#1890FF"/>
</svg>
