<svg width="79" height="24" viewBox="0 0 79 24" fill="none" xmlns="http://www.w3.org/2000/svg">
<path d="M0.820312 10.3281C0.820312 9.60156 0.972656 8.96094 1.27734 8.40625C1.58203 7.85156 2 7.41406 2.53125 7.09375C3.0625 6.76562 3.65625 6.52344 4.3125 6.36719C4.97656 6.20312 5.69922 6.12109 6.48047 6.12109C7.52734 6.12109 8.44141 6.25781 9.22266 6.53125C10.0117 6.80469 10.6445 7.24609 11.1211 7.85547C11.5977 8.45703 11.8359 9.19922 11.8359 10.082H7.75781C7.70312 9.78516 7.56641 9.53906 7.34766 9.34375C7.12891 9.14844 6.82422 9.05078 6.43359 9.05078C6.05859 9.05078 5.77344 9.13672 5.57812 9.30859C5.38281 9.47266 5.28516 9.67188 5.28516 9.90625C5.28516 10.1016 5.35156 10.2695 5.48438 10.4102C5.625 10.543 5.83594 10.6523 6.11719 10.7383C6.40625 10.8242 6.66797 10.8906 6.90234 10.9375C7.13672 10.9844 7.46094 11.0391 7.875 11.1016C8.28906 11.1562 8.58594 11.1992 8.76562 11.2305C9.9375 11.4414 10.8203 11.8359 11.4141 12.4141C12.0078 12.9844 12.3047 13.7891 12.3047 14.8281C12.3047 16.2031 11.793 17.2852 10.7695 18.0742C9.74609 18.8555 8.27344 19.2461 6.35156 19.2461C4.45312 19.2461 3.00781 18.8711 2.01562 18.1211C1.02344 17.3711 0.527344 16.4062 0.527344 15.2266H5.12109C5.14453 15.5391 5.28516 15.7969 5.54297 16C5.80859 16.1953 6.14453 16.293 6.55078 16.293C6.91797 16.293 7.20703 16.2109 7.41797 16.0469C7.62891 15.8828 7.73438 15.6836 7.73438 15.4492C7.73438 15.2773 7.67578 15.1328 7.55859 15.0156C7.44922 14.8906 7.27344 14.793 7.03125 14.7227C6.79688 14.6445 6.57031 14.582 6.35156 14.5352C6.14062 14.4883 5.85547 14.4375 5.49609 14.3828C5.13672 14.3203 4.85938 14.2695 4.66406 14.2305C2.10156 13.6992 0.820312 12.3984 0.820312 10.3281ZM19.8398 19.2461C18.9023 19.2461 18.0469 19.1211 17.2734 18.8711C16.5078 18.6211 15.8359 18.25 15.2578 17.7578C14.6875 17.2578 14.2461 16.6094 13.9336 15.8125C13.6211 15.0078 13.4648 14.0859 13.4648 13.0469V12.2734C13.4648 11.2422 13.6289 10.3281 13.957 9.53125C14.293 8.72656 14.7461 8.08203 15.3164 7.59766C15.8945 7.10547 16.5508 6.73828 17.2852 6.49609C18.0195 6.24609 18.8125 6.12109 19.6641 6.12109C21.5078 6.12109 22.9883 6.67188 24.1055 7.77344C25.2305 8.86719 25.793 10.3672 25.793 12.2734V13.5977H18.0703V14.1367C18.0703 14.6836 18.2422 15.1094 18.5859 15.4141C18.9375 15.7188 19.3477 15.8711 19.8164 15.8711C20.3008 15.8711 20.707 15.7578 21.0352 15.5312C21.3633 15.3047 21.5312 15 21.5391 14.6172H25.7578C25.75 15.0234 25.6797 15.4336 25.5469 15.8477C25.4141 16.2539 25.1953 16.6641 24.8906 17.0781C24.5859 17.4922 24.2109 17.8594 23.7656 18.1797C23.3281 18.4922 22.7695 18.75 22.0898 18.9531C21.4102 19.1484 20.6602 19.2461 19.8398 19.2461ZM18.0703 11.1367H21.2812C21.2812 10.6055 21.1367 10.1797 20.8477 9.85938C20.5664 9.53125 20.1875 9.36719 19.7109 9.36719C19.2266 9.36719 18.832 9.53125 18.5273 9.85938C18.2227 10.1875 18.0703 10.6133 18.0703 11.1367ZM28.8047 6.36719V3.56641H33.3633V6.36719H35.7305V9.88281H33.3633V14.3125C33.3633 15.1484 33.8633 15.5664 34.8633 15.5664C35.2852 15.5664 35.5742 15.5586 35.7305 15.543V18.8828C35.1602 18.9609 34.4922 19 33.7266 19C31.9844 19 30.7031 18.7266 29.8828 18.1797C29.0703 17.6328 28.6641 16.6953 28.6641 15.3672V9.88281H26.7422V6.36719H28.8047ZM46.2422 19.1055C45.375 19.1055 44.6328 18.9141 44.0156 18.5312C43.4062 18.1484 42.9766 17.6289 42.7266 16.9727H42.4922V23.1953H37.7227V6.36719H42.4922V8.37109H42.7266C42.9766 7.71484 43.4062 7.19922 44.0156 6.82422C44.625 6.44922 45.3672 6.26172 46.2422 6.26172C47.6484 6.26172 48.7461 6.76953 49.5352 7.78516C50.332 8.79297 50.7305 10.2656 50.7305 12.2031V13.1406C50.7305 15.0781 50.332 16.5586 49.5352 17.582C48.7461 18.5977 47.6484 19.1055 46.2422 19.1055ZM44.1445 15.543C44.6523 15.543 45.0547 15.332 45.3516 14.9102C45.6484 14.4805 45.7969 13.8555 45.7969 13.0352V12.3438C45.7969 11.5234 45.6484 10.9023 45.3516 10.4805C45.0547 10.0586 44.6523 9.84766 44.1445 9.84766C43.6523 9.84766 43.2539 10.0586 42.9492 10.4805C42.6445 10.9023 42.4922 11.5234 42.4922 12.3438V13.0352C42.4922 13.8555 42.6445 14.4805 42.9492 14.9102C43.2539 15.332 43.6523 15.543 44.1445 15.543ZM52.6172 19V6.36719H57.3633V19H52.6172ZM52.5469 3.10938C52.5469 2.46094 52.7812 1.94141 53.25 1.55078C53.7188 1.16016 54.3008 0.964844 54.9961 0.964844C55.6836 0.964844 56.2617 1.16016 56.7305 1.55078C57.1992 1.94141 57.4336 2.46094 57.4336 3.10938C57.4336 3.76562 57.1992 4.28906 56.7305 4.67969C56.2617 5.07031 55.6836 5.26562 54.9961 5.26562C54.3008 5.26562 53.7188 5.07031 53.25 4.67969C52.7812 4.28906 52.5469 3.76562 52.5469 3.10938ZM59.8477 19V2.16016H64.6055V19H59.8477ZM72.8086 19.2461C71.8711 19.2461 71.0156 19.1211 70.2422 18.8711C69.4766 18.6211 68.8047 18.25 68.2266 17.7578C67.6562 17.2578 67.2148 16.6094 66.9023 15.8125C66.5898 15.0078 66.4336 14.0859 66.4336 13.0469V12.2734C66.4336 11.2422 66.5977 10.3281 66.9258 9.53125C67.2617 8.72656 67.7148 8.08203 68.2852 7.59766C68.8633 7.10547 69.5195 6.73828 70.2539 6.49609C70.9883 6.24609 71.7812 6.12109 72.6328 6.12109C74.4766 6.12109 75.957 6.67188 77.0742 7.77344C78.1992 8.86719 78.7617 10.3672 78.7617 12.2734V13.5977H71.0391V14.1367C71.0391 14.6836 71.2109 15.1094 71.5547 15.4141C71.9062 15.7188 72.3164 15.8711 72.7852 15.8711C73.2695 15.8711 73.6758 15.7578 74.0039 15.5312C74.332 15.3047 74.5 15 74.5078 14.6172H78.7266C78.7188 15.0234 78.6484 15.4336 78.5156 15.8477C78.3828 16.2539 78.1641 16.6641 77.8594 17.0781C77.5547 17.4922 77.1797 17.8594 76.7344 18.1797C76.2969 18.4922 75.7383 18.75 75.0586 18.9531C74.3789 19.1484 73.6289 19.2461 72.8086 19.2461ZM71.0391 11.1367H74.25C74.25 10.6055 74.1055 10.1797 73.8164 9.85938C73.5352 9.53125 73.1562 9.36719 72.6797 9.36719C72.1953 9.36719 71.8008 9.53125 71.4961 9.85938C71.1914 10.1875 71.0391 10.6133 71.0391 11.1367Z" fill="white"/>
</svg>
